<svg width="245" height="78" viewBox="0 0 245 78" fill="none" xmlns="http://www.w3.org/2000/svg">
<g filter="url(#filter0_d_1_333)">
<path d="M16 16H206C218.703 16 229 26.2975 229 39C229 51.7025 218.703 62 206 62H40C26.7452 62 16 51.2548 16 38V16Z" fill="#EE7700"/>
<path d="M83.52 33.8V45H81.44V40.2H75.648V45H73.568V33.8H75.648V38.424H81.44V33.8H83.52ZM89.6218 36.36C90.8804 36.36 91.8404 36.664 92.5018 37.272C93.1738 37.8693 93.5098 38.776 93.5098 39.992V45H91.6218V43.96C91.3764 44.3333 91.0244 44.6213 90.5658 44.824C90.1178 45.016 89.5738 45.112 88.9338 45.112C88.2938 45.112 87.7338 45.0053 87.2538 44.792C86.7738 44.568 86.4004 44.264 86.1338 43.88C85.8778 43.4853 85.7498 43.0427 85.7498 42.552C85.7498 41.784 86.0324 41.1707 86.5978 40.712C87.1738 40.2427 88.0751 40.008 89.3018 40.008H91.5098V39.88C91.5098 39.2827 91.3284 38.824 90.9658 38.504C90.6138 38.184 90.0858 38.024 89.3818 38.024C88.9018 38.024 88.4271 38.0987 87.9578 38.248C87.4991 38.3973 87.1098 38.6053 86.7898 38.872L86.0058 37.416C86.4538 37.0747 86.9924 36.8133 87.6218 36.632C88.2511 36.4507 88.9178 36.36 89.6218 36.36ZM89.3498 43.656C89.8511 43.656 90.2938 43.544 90.6778 43.32C91.0724 43.0853 91.3498 42.7547 91.5098 42.328V41.336H89.4458C88.2938 41.336 87.7178 41.7147 87.7178 42.472C87.7178 42.8347 87.8618 43.1227 88.1498 43.336C88.4378 43.5493 88.8378 43.656 89.3498 43.656ZM108.577 36.456V45H95.9846V36.456H97.9846V43.304H101.297V36.456H103.297V43.304H106.577V36.456H108.577ZM119.266 40.776C119.266 40.9147 119.255 41.112 119.234 41.368H112.53C112.647 41.9973 112.951 42.4987 113.442 42.872C113.943 43.2347 114.562 43.416 115.298 43.416C116.237 43.416 117.01 43.1067 117.618 42.488L118.69 43.72C118.306 44.1787 117.821 44.5253 117.234 44.76C116.647 44.9947 115.986 45.112 115.25 45.112C114.311 45.112 113.485 44.9253 112.77 44.552C112.055 44.1787 111.501 43.6613 111.106 43C110.722 42.328 110.53 41.5707 110.53 40.728C110.53 39.896 110.717 39.1493 111.09 38.488C111.474 37.816 112.002 37.2933 112.674 36.92C113.346 36.5467 114.103 36.36 114.946 36.36C115.778 36.36 116.519 36.5467 117.17 36.92C117.831 37.2827 118.343 37.8 118.706 38.472C119.079 39.1333 119.266 39.9013 119.266 40.776ZM114.946 37.96C114.306 37.96 113.762 38.152 113.314 38.536C112.877 38.9093 112.61 39.4107 112.514 40.04H117.362C117.277 39.4213 117.015 38.92 116.578 38.536C116.141 38.152 115.597 37.96 114.946 37.96ZM134.275 45V39.336L131.395 44.104H130.531L127.699 39.32V45H125.875V36.456H127.971L131.011 41.8L134.195 36.456H136.067L136.083 45H134.275ZM146.766 40.776C146.766 40.9147 146.755 41.112 146.734 41.368H140.03C140.147 41.9973 140.451 42.4987 140.942 42.872C141.443 43.2347 142.062 43.416 142.798 43.416C143.737 43.416 144.51 43.1067 145.118 42.488L146.19 43.72C145.806 44.1787 145.321 44.5253 144.734 44.76C144.147 44.9947 143.486 45.112 142.75 45.112C141.811 45.112 140.985 44.9253 140.27 44.552C139.555 44.1787 139.001 43.6613 138.606 43C138.222 42.328 138.03 41.5707 138.03 40.728C138.03 39.896 138.217 39.1493 138.59 38.488C138.974 37.816 139.502 37.2933 140.174 36.92C140.846 36.5467 141.603 36.36 142.446 36.36C143.278 36.36 144.019 36.5467 144.67 36.92C145.331 37.2827 145.843 37.8 146.206 38.472C146.579 39.1333 146.766 39.9013 146.766 40.776ZM142.446 37.96C141.806 37.96 141.262 38.152 140.814 38.536C140.377 38.9093 140.11 39.4107 140.014 40.04H144.862C144.777 39.4213 144.515 38.92 144.078 38.536C143.641 38.152 143.097 37.96 142.446 37.96ZM148.953 36.456H150.953V39.928H155.257V36.456H157.257V45H155.257V41.624H150.953V45H148.953V36.456ZM167.746 36.36C168.599 36.36 169.362 36.5467 170.034 36.92C170.706 37.2827 171.234 37.8 171.618 38.472C172.002 39.1333 172.194 39.8853 172.194 40.728C172.194 41.5707 172.002 42.328 171.618 43C171.234 43.6613 170.706 44.1787 170.034 44.552C169.362 44.9253 168.599 45.112 167.746 45.112C166.999 45.112 166.316 44.968 165.698 44.68C165.079 44.3813 164.567 43.9653 164.162 43.432C163.756 42.888 163.495 42.2693 163.378 41.576H161.938V45H159.938V36.456H161.938V39.768H163.41C163.538 39.096 163.804 38.504 164.21 37.992C164.615 37.4693 165.122 37.0693 165.73 36.792C166.338 36.504 167.01 36.36 167.746 36.36ZM167.746 43.416C168.215 43.416 168.636 43.3093 169.01 43.096C169.383 42.872 169.676 42.5573 169.89 42.152C170.103 41.736 170.21 41.2613 170.21 40.728C170.21 39.9173 169.975 39.272 169.506 38.792C169.047 38.3013 168.46 38.056 167.746 38.056C167.031 38.056 166.444 38.3013 165.986 38.792C165.527 39.272 165.298 39.9173 165.298 40.728C165.298 41.5387 165.527 42.1893 165.986 42.68C166.455 43.1707 167.042 43.416 167.746 43.416Z" fill="white"/>
</g>
<defs>
<filter id="filter0_d_1_333" x="0" y="0" width="245" height="78" filterUnits="userSpaceOnUse" color-interpolation-filters="sRGB">
<feFlood flood-opacity="0" result="BackgroundImageFix"/>
<feColorMatrix in="SourceAlpha" type="matrix" values="0 0 0 0 0 0 0 0 0 0 0 0 0 0 0 0 0 0 127 0" result="hardAlpha"/>
<feOffset/>
<feGaussianBlur stdDeviation="8"/>
<feColorMatrix type="matrix" values="0 0 0 0 1 0 0 0 0 0.465917 0 0 0 0 0.0791667 0 0 0 0.44 0"/>
<feBlend mode="normal" in2="BackgroundImageFix" result="effect1_dropShadow_1_333"/>
<feBlend mode="normal" in="SourceGraphic" in2="effect1_dropShadow_1_333" result="shape"/>
</filter>
</defs>
</svg>
