<svg width="13" height="20" viewBox="0 0 13 20" fill="none" xmlns="http://www.w3.org/2000/svg">
<path d="M5.83199 19.5965C0.913047 11.3684 0 10.5239 0 7.5C0 3.35785 2.91014 0 6.5 0C10.0899 0 13 3.35785 13 7.5C13 10.5239 12.087 11.3684 7.16801 19.5965C6.84521 20.1345 6.15476 20.1345 5.83199 19.5965ZM6.5 10.625C7.99578 10.625 9.20833 9.2259 9.20833 7.5C9.20833 5.7741 7.99578 4.375 6.5 4.375C5.00422 4.375 3.79167 5.7741 3.79167 7.5C3.79167 9.2259 5.00422 10.625 6.5 10.625Z" fill="#82BC00"/>
</svg>
